<svg width="64" height="64" viewBox="0 0 20 20" xmlns="http://www.w3.org/2000/svg">
  <g id="Layer_2">
    <rect fill="none" height="20" width="20"/>
    <path fill="#000000" d="M17.88,18H6.81a.73.73,0,0,1-.73-.73V6.57A.73.73,0,0,1,6.4,6l5.53-3.83a.74.74,0,0,1,.83,0L18.29,6a.73.73,0,0,1,.32.6V17.29A.73.73,0,0,1,17.88,18Z"/>
    <circle fill="#FF0000" cx="5.86" cy="6.89" r="5"/>
    <path fill="#000000" d="M10.86,6.89A4.93,4.93,0,0,0,9.68,3.7L6.4,6a.73.73,0,0,0-.32.6v5.3A5,5,0,0,0,10.86,6.89Z"/>
  </g>
</svg>